<mxfile host="Electron" modified="2023-04-28T09:14:41.069Z" agent="Mozilla/5.0 (Macintosh; Intel Mac OS X 10_15_7) AppleWebKit/537.36 (KHTML, like Gecko) draw.io/21.2.1 Chrome/112.0.5615.87 Electron/24.1.2 Safari/537.36" etag="KHjk9y3jqCCKC-SCTFM9" version="21.2.1" type="device">
  <diagram name="Seite-1" id="xVj5EhTxrT_KSyKY-WEa">
    <mxGraphModel dx="2141" dy="886" grid="1" gridSize="10" guides="1" tooltips="1" connect="1" arrows="1" fold="1" page="1" pageScale="1" pageWidth="827" pageHeight="1169" math="0" shadow="0">
      <root>
        <mxCell id="0" />
        <mxCell id="1" parent="0" />
        <mxCell id="NZGhRMDsqNhkol5odYiz-6" style="edgeStyle=orthogonalEdgeStyle;rounded=0;orthogonalLoop=1;jettySize=auto;html=1;entryX=0;entryY=0.5;entryDx=0;entryDy=0;" parent="1" source="NZGhRMDsqNhkol5odYiz-1" target="NZGhRMDsqNhkol5odYiz-2" edge="1">
          <mxGeometry relative="1" as="geometry" />
        </mxCell>
        <mxCell id="NZGhRMDsqNhkol5odYiz-1" value="Template" style="html=1;verticalLabelPosition=bottom;align=center;labelBackgroundColor=#ffffff;verticalAlign=top;strokeWidth=2;strokeColor=#0080F0;shadow=0;dashed=0;shape=mxgraph.ios7.icons.document;" parent="1" vertex="1">
          <mxGeometry x="-290" y="320" width="50" height="60" as="geometry" />
        </mxCell>
        <mxCell id="q9Hf9g-AvQUo-Aw0r0wj-2" style="edgeStyle=orthogonalEdgeStyle;rounded=0;orthogonalLoop=1;jettySize=auto;html=1;" parent="1" source="NZGhRMDsqNhkol5odYiz-2" target="q9Hf9g-AvQUo-Aw0r0wj-1" edge="1">
          <mxGeometry relative="1" as="geometry" />
        </mxCell>
        <mxCell id="NZGhRMDsqNhkol5odYiz-2" value="Report APP" style="rounded=1;whiteSpace=wrap;html=1;" parent="1" vertex="1">
          <mxGeometry x="-160" y="320" width="120" height="60" as="geometry" />
        </mxCell>
        <mxCell id="NZGhRMDsqNhkol5odYiz-8" style="edgeStyle=orthogonalEdgeStyle;rounded=0;orthogonalLoop=1;jettySize=auto;html=1;" parent="1" source="NZGhRMDsqNhkol5odYiz-3" target="NZGhRMDsqNhkol5odYiz-5" edge="1">
          <mxGeometry relative="1" as="geometry" />
        </mxCell>
        <mxCell id="NZGhRMDsqNhkol5odYiz-3" value="API V2" style="rounded=1;whiteSpace=wrap;html=1;" parent="1" vertex="1">
          <mxGeometry x="440" y="320" width="120" height="60" as="geometry" />
        </mxCell>
        <mxCell id="NZGhRMDsqNhkol5odYiz-5" value="eliona DB" style="strokeWidth=2;html=1;shape=mxgraph.flowchart.database;whiteSpace=wrap;" parent="1" vertex="1">
          <mxGeometry x="640" y="320" width="60" height="60" as="geometry" />
        </mxCell>
        <mxCell id="NZGhRMDsqNhkol5odYiz-9" value="✅" style="text;html=1;strokeColor=none;fillColor=none;align=center;verticalAlign=middle;whiteSpace=wrap;rounded=0;" parent="1" vertex="1">
          <mxGeometry x="-300" y="410" width="60" height="30" as="geometry" />
        </mxCell>
        <mxCell id="NZGhRMDsqNhkol5odYiz-10" value="✅" style="text;html=1;strokeColor=none;fillColor=none;align=center;verticalAlign=middle;whiteSpace=wrap;rounded=0;" parent="1" vertex="1">
          <mxGeometry x="470" y="390" width="60" height="30" as="geometry" />
        </mxCell>
        <mxCell id="NZGhRMDsqNhkol5odYiz-11" value="✅" style="text;html=1;strokeColor=none;fillColor=none;align=center;verticalAlign=middle;whiteSpace=wrap;rounded=0;" parent="1" vertex="1">
          <mxGeometry x="640" y="390" width="60" height="30" as="geometry" />
        </mxCell>
        <mxCell id="NZGhRMDsqNhkol5odYiz-12" value="Excel&lt;br&gt;" style="sketch=0;pointerEvents=1;shadow=0;dashed=0;html=1;strokeColor=none;fillColor=#505050;labelPosition=center;verticalLabelPosition=bottom;verticalAlign=top;outlineConnect=0;align=center;shape=mxgraph.office.concepts.app_for_office;" parent="1" vertex="1">
          <mxGeometry x="-296.5" y="190" width="53" height="40" as="geometry" />
        </mxCell>
        <mxCell id="NZGhRMDsqNhkol5odYiz-13" value="VS Code" style="sketch=0;pointerEvents=1;shadow=0;dashed=0;html=1;strokeColor=none;fillColor=#505050;labelPosition=center;verticalLabelPosition=bottom;verticalAlign=top;outlineConnect=0;align=center;shape=mxgraph.office.concepts.app_for_office;" parent="1" vertex="1">
          <mxGeometry x="-126.5" y="190" width="53" height="40" as="geometry" />
        </mxCell>
        <mxCell id="NZGhRMDsqNhkol5odYiz-14" value="Postman" style="sketch=0;pointerEvents=1;shadow=0;dashed=0;html=1;strokeColor=none;fillColor=#505050;labelPosition=center;verticalLabelPosition=bottom;verticalAlign=top;outlineConnect=0;align=center;shape=mxgraph.office.concepts.app_for_office;" parent="1" vertex="1">
          <mxGeometry x="473.5" y="190" width="53" height="40" as="geometry" />
        </mxCell>
        <mxCell id="NZGhRMDsqNhkol5odYiz-15" value="PSQL" style="sketch=0;pointerEvents=1;shadow=0;dashed=0;html=1;strokeColor=none;fillColor=#505050;labelPosition=center;verticalLabelPosition=bottom;verticalAlign=top;outlineConnect=0;align=center;shape=mxgraph.office.concepts.app_for_office;" parent="1" vertex="1">
          <mxGeometry x="643.5" y="190" width="53" height="40" as="geometry" />
        </mxCell>
        <mxCell id="NZGhRMDsqNhkol5odYiz-17" style="edgeStyle=orthogonalEdgeStyle;rounded=0;orthogonalLoop=1;jettySize=auto;html=1;entryX=0.5;entryY=1;entryDx=0;entryDy=0;" parent="1" source="NZGhRMDsqNhkol5odYiz-16" target="NZGhRMDsqNhkol5odYiz-2" edge="1">
          <mxGeometry relative="1" as="geometry" />
        </mxCell>
        <mxCell id="NZGhRMDsqNhkol5odYiz-16" value="Config" style="html=1;verticalLabelPosition=bottom;align=center;labelBackgroundColor=#ffffff;verticalAlign=top;strokeWidth=2;strokeColor=#0080F0;shadow=0;dashed=0;shape=mxgraph.ios7.icons.document;" parent="1" vertex="1">
          <mxGeometry x="-125" y="480" width="50" height="60" as="geometry" />
        </mxCell>
        <mxCell id="q9Hf9g-AvQUo-Aw0r0wj-6" style="edgeStyle=orthogonalEdgeStyle;rounded=0;orthogonalLoop=1;jettySize=auto;html=1;" parent="1" source="q9Hf9g-AvQUo-Aw0r0wj-1" target="q9Hf9g-AvQUo-Aw0r0wj-5" edge="1">
          <mxGeometry relative="1" as="geometry">
            <mxPoint x="400" y="350" as="targetPoint" />
          </mxGeometry>
        </mxCell>
        <mxCell id="q9Hf9g-AvQUo-Aw0r0wj-1" value="Leicom API Handler" style="rounded=1;whiteSpace=wrap;html=1;" parent="1" vertex="1">
          <mxGeometry x="40" y="320" width="120" height="60" as="geometry" />
        </mxCell>
        <mxCell id="q9Hf9g-AvQUo-Aw0r0wj-4" value="VS Code" style="sketch=0;pointerEvents=1;shadow=0;dashed=0;html=1;strokeColor=none;fillColor=#505050;labelPosition=center;verticalLabelPosition=bottom;verticalAlign=top;outlineConnect=0;align=center;shape=mxgraph.office.concepts.app_for_office;" parent="1" vertex="1">
          <mxGeometry x="73.5" y="190" width="53" height="40" as="geometry" />
        </mxCell>
        <mxCell id="q9Hf9g-AvQUo-Aw0r0wj-7" style="edgeStyle=orthogonalEdgeStyle;rounded=0;orthogonalLoop=1;jettySize=auto;html=1;" parent="1" source="q9Hf9g-AvQUo-Aw0r0wj-5" target="NZGhRMDsqNhkol5odYiz-3" edge="1">
          <mxGeometry relative="1" as="geometry" />
        </mxCell>
        <mxCell id="q9Hf9g-AvQUo-Aw0r0wj-5" value="python API Modul" style="rounded=1;whiteSpace=wrap;html=1;" parent="1" vertex="1">
          <mxGeometry x="240" y="320" width="120" height="60" as="geometry" />
        </mxCell>
        <mxCell id="q9Hf9g-AvQUo-Aw0r0wj-8" value="VS Code" style="sketch=0;pointerEvents=1;shadow=0;dashed=0;html=1;strokeColor=none;fillColor=#505050;labelPosition=center;verticalLabelPosition=bottom;verticalAlign=top;outlineConnect=0;align=center;shape=mxgraph.office.concepts.app_for_office;" parent="1" vertex="1">
          <mxGeometry x="273.5" y="190" width="53" height="40" as="geometry" />
        </mxCell>
        <mxCell id="q9Hf9g-AvQUo-Aw0r0wj-9" value="✅" style="text;html=1;strokeColor=none;fillColor=none;align=center;verticalAlign=middle;whiteSpace=wrap;rounded=0;" parent="1" vertex="1">
          <mxGeometry x="-130" y="570" width="60" height="30" as="geometry" />
        </mxCell>
        <mxCell id="q9Hf9g-AvQUo-Aw0r0wj-10" value="✅" style="text;html=1;strokeColor=none;fillColor=none;align=center;verticalAlign=middle;whiteSpace=wrap;rounded=0;" parent="1" vertex="1">
          <mxGeometry x="-130" y="290" width="60" height="30" as="geometry" />
        </mxCell>
        <mxCell id="q9Hf9g-AvQUo-Aw0r0wj-12" style="edgeStyle=orthogonalEdgeStyle;rounded=0;orthogonalLoop=1;jettySize=auto;html=1;entryX=0.5;entryY=1;entryDx=0;entryDy=0;" parent="1" source="q9Hf9g-AvQUo-Aw0r0wj-11" target="q9Hf9g-AvQUo-Aw0r0wj-1" edge="1">
          <mxGeometry relative="1" as="geometry" />
        </mxCell>
        <mxCell id="q9Hf9g-AvQUo-Aw0r0wj-11" value="Test.py" style="rounded=1;whiteSpace=wrap;html=1;" parent="1" vertex="1">
          <mxGeometry x="-160" y="680" width="120" height="60" as="geometry" />
        </mxCell>
        <mxCell id="q9Hf9g-AvQUo-Aw0r0wj-13" value="✅" style="text;html=1;strokeColor=none;fillColor=none;align=center;verticalAlign=middle;whiteSpace=wrap;rounded=0;" parent="1" vertex="1">
          <mxGeometry x="-130" y="650" width="60" height="30" as="geometry" />
        </mxCell>
        <mxCell id="q9Hf9g-AvQUo-Aw0r0wj-14" value="✅" style="text;html=1;strokeColor=none;fillColor=none;align=center;verticalAlign=middle;whiteSpace=wrap;rounded=0;" parent="1" vertex="1">
          <mxGeometry x="66.5" y="290" width="60" height="30" as="geometry" />
        </mxCell>
        <mxCell id="q9Hf9g-AvQUo-Aw0r0wj-15" value="✅" style="text;html=1;strokeColor=none;fillColor=none;align=center;verticalAlign=middle;whiteSpace=wrap;rounded=0;" parent="1" vertex="1">
          <mxGeometry x="270" y="290" width="60" height="30" as="geometry" />
        </mxCell>
      </root>
    </mxGraphModel>
  </diagram>
</mxfile>
